<svg width="1920" height="1080" viewBox="0 0 1920 1080" xmlns="http://www.w3.org/2000/svg"><rect width="1920" height="1080" fill="#daabf2"/><path d="M 0,1080 C 0,1080 0,180 0,180 C 84.12051282051283,206.21794871794873 168.24102564102566,232.43589743589743 285,215 C 401.75897435897434,197.56410256410257 551.1564102564103,136.47435897435898 684,133 C 816.8435897435897,129.52564102564102 933.1333333333334,183.66666666666669 1016,203 C 1098.8666666666666,222.33333333333331 1148.3102564102564,206.85897435897436 1253,209 C 1357.6897435897436,211.14102564102564 1517.625641025641,230.89743589743588 1638,229 C 1758.374358974359,227.10256410256412 1839.1871794871795,203.55128205128204 1920,180 C 1920,180 1920,1080 1920,1080 Z" fill="#4531aa" opacity="0.09999999999999999"/><path d="M 0,1080 C 0,1080 0,360 0,360 C 115.0128205128205,365.3307692307692 230.025641025641,370.66153846153844 332,383 C 433.974358974359,395.33846153846156 522.9102564102566,414.68461538461537 614,421 C 705.0897435897434,427.31538461538463 798.3333333333333,420.6000000000001 921,409 C 1043.6666666666667,397.3999999999999 1195.7564102564102,380.91538461538454 1317,376 C 1438.2435897435898,371.08461538461546 1528.6410256410256,377.7384615384616 1624,377 C 1719.3589743589744,376.2615384615384 1819.6794871794873,368.1307692307692 1920,360 C 1920,360 1920,1080 1920,1080 Z" fill="#4531aa" opacity="0.19999999999999998"/><path d="M 0,1080 C 0,1080 0,540 0,540 C 106.72564102564107,573.7128205128206 213.45128205128213,607.4256410256411 315,592 C 416.54871794871787,576.5743589743589 512.9205128205127,512.0102564102564 628,488 C 743.0794871794873,463.9897435897436 876.8666666666668,480.5333333333333 999,483 C 1121.1333333333332,485.4666666666667 1231.6128205128205,473.8564102564103 1338,494 C 1444.3871794871795,514.1435897435897 1546.6820512820511,566.0410256410256 1643,579 C 1739.3179487179489,591.9589743589744 1829.6589743589743,565.9794871794873 1920,540 C 1920,540 1920,1080 1920,1080 Z" fill="#4531aa" opacity="0.3"/><path d="M 0,1080 C 0,1080 0,720 0,720 C 131.71282051282054,701.5948717948718 263.4256410256411,683.1897435897436 355,678 C 446.5743589743589,672.8102564102564 498.0102564102564,680.8358974358974 595,696 C 691.9897435897436,711.1641025641026 834.5333333333331,733.4666666666666 940,717 C 1045.466666666667,700.5333333333334 1113.8564102564105,645.2974358974359 1228,656 C 1342.1435897435895,666.7025641025641 1502.0410256410255,743.3435897435897 1625,765 C 1747.9589743589745,786.6564102564103 1833.9794871794873,753.3282051282051 1920,720 C 1920,720 1920,1080 1920,1080 Z" fill="#4531aa" opacity="0.39999999999999997"/><path d="M 0,1080 C 0,1080 0,900 0,900 C 123.70000000000002,918.6871794871795 247.40000000000003,937.374358974359 370,944 C 492.59999999999997,950.625641025641 614.0999999999999,945.1897435897434 696,941 C 777.9000000000001,936.8102564102566 820.2,933.8666666666666 919,946 C 1017.8,958.1333333333334 1173.1,985.3435897435897 1304,965 C 1434.9,944.6564102564103 1541.4,876.7589743589745 1640,858 C 1738.6,839.2410256410255 1829.3,869.6205128205128 1920,900 C 1920,900 1920,1080 1920,1080 Z" fill="#4531aa" opacity="0.49999999999999994"/></svg>