<svg id="wave" style="transform:rotate(0deg); transition: 0.3s" viewBox="0 0 1440 490" version="1.1" xmlns="http://www.w3.org/2000/svg"><defs><linearGradient id="sw-gradient-0" x1="0" x2="0" y1="1" y2="0"><stop stop-color="rgba(138.606, 57.754, 234.829, 1)" offset="0%"></stop><stop stop-color="rgba(182.921, 157.137, 223.445, 1)" offset="100%"></stop></linearGradient></defs><path style="transform:translate(0, 0px); opacity:1" fill="url(#sw-gradient-0)" d="M0,196L48,236.8C96,278,192,359,288,334.8C384,310,480,180,576,171.5C672,163,768,278,864,285.8C960,294,1056,196,1152,187.8C1248,180,1344,261,1440,310.3C1536,359,1632,376,1728,375.7C1824,376,1920,359,2016,310.3C2112,261,2208,180,2304,130.7C2400,82,2496,65,2592,81.7C2688,98,2784,147,2880,155.2C2976,163,3072,131,3168,138.8C3264,147,3360,196,3456,212.3C3552,229,3648,212,3744,204.2C3840,196,3936,196,4032,204.2C4128,212,4224,229,4320,220.5C4416,212,4512,180,4608,155.2C4704,131,4800,114,4896,114.3C4992,114,5088,131,5184,163.3C5280,196,5376,245,5472,253.2C5568,261,5664,229,5760,220.5C5856,212,5952,229,6048,228.7C6144,229,6240,212,6336,212.3C6432,212,6528,229,6624,220.5C6720,212,6816,180,6864,163.3L6912,147L6912,490L6864,490C6816,490,6720,490,6624,490C6528,490,6432,490,6336,490C6240,490,6144,490,6048,490C5952,490,5856,490,5760,490C5664,490,5568,490,5472,490C5376,490,5280,490,5184,490C5088,490,4992,490,4896,490C4800,490,4704,490,4608,490C4512,490,4416,490,4320,490C4224,490,4128,490,4032,490C3936,490,3840,490,3744,490C3648,490,3552,490,3456,490C3360,490,3264,490,3168,490C3072,490,2976,490,2880,490C2784,490,2688,490,2592,490C2496,490,2400,490,2304,490C2208,490,2112,490,2016,490C1920,490,1824,490,1728,490C1632,490,1536,490,1440,490C1344,490,1248,490,1152,490C1056,490,960,490,864,490C768,490,672,490,576,490C480,490,384,490,288,490C192,490,96,490,48,490L0,490Z"></path></svg>