<?xml version="1.0" encoding="iso-8859-1"?>
<!-- Uploaded to: SVG Repo, www.svgrepo.com, Generator: SVG Repo Mixer Tools -->
<svg version="1.1" id="Layer_1" xmlns="http://www.w3.org/2000/svg" xmlns:xlink="http://www.w3.org/1999/xlink" 
	 viewBox="0 0 512 512" xml:space="preserve">
<g>
	<polyline style="fill:#FBB03B;" points="352.275,242.816 352.275,90.121 375.753,34.121 399.231,90.121 399.231,242.816 	"/>
	<polyline style="fill:#FBB03B;" points="112.275,242.816 112.275,90.121 136.275,34.121 160.275,90.121 160.275,242.816 	"/>
	<polyline style="fill:#FBB03B;" points="271.927,242.816 271.927,90.121 295.927,34.121 319.927,90.121 319.927,242.816 	"/>
	<polyline style="fill:#FBB03B;" points="431.579,242.816 431.579,90.121 456.101,34.121 480.623,90.121 480.623,242.816 	"/>
	<polyline style="fill:#FBB03B;" points="32.971,242.816 32.971,90.121 56.971,34.121 80.971,90.121 80.971,242.816 	"/>
	<polyline style="fill:#FBB03B;" points="191.579,242.816 191.579,90.121 215.579,34.121 239.579,90.121 239.579,242.816 	"/>
</g>
<polygon style="fill:#BF9484;" points="80,90.121 56,98.12 32,90.121 56,34.121 "/>
<polygon style="fill:#A65A53;" points="160,90.121 136,98.12 112.001,90.121 136,34.121 "/>
<polygon style="fill:#BF9484;" points="240,90.121 216,98.12 192,90.121 216,34.121 "/>
<polygon style="fill:#A65A53;" points="320,90.121 296,98.12 272,90.121 296,34.121 "/>
<polygon style="fill:#BF9484;" points="399.999,90.121 375.999,98.12 351.999,90.121 375.999,34.121 "/>
<polygon style="fill:#A65A53;" points="480,90.121 456,98.12 432,90.121 456,34.121 "/>
<g>
	<polygon style="fill:#FFFFFF;" points="56,242.12 32,242.12 32,90.121 56,98.12 	"/>
	<polygon style="fill:#FFFFFF;" points="136,242.12 112.001,242.12 112.001,90.121 136,98.12 	"/>
	<polygon style="fill:#FFFFFF;" points="216,242.12 192,242.12 192,90.121 216,98.12 	"/>
	<polygon style="fill:#FFFFFF;" points="296,242.12 272,242.12 272,90.121 296,98.12 	"/>
	<polygon style="fill:#FFFFFF;" points="375.999,242.12 351.999,242.12 351.999,90.121 375.999,98.12 	"/>
	<polygon style="fill:#FFFFFF;" points="456,242.12 432,242.12 432,90.121 456,98.12 	"/>
</g>
<rect x="24" y="242.118" style="fill:#514A51;" width="464.003" height="32"/>
<rect x="8" y="274.122" style="fill:#F1506E;" width="495.996" height="216"/>
<rect x="8" y="458.118" style="fill:#514A51;" width="495.996" height="32"/>
<rect x="425.321" y="449.426" width="30.261" height="15.652"/>
<g>
	<rect x="32.971" y="418.121" style="fill:#FFFFFF;" width="14.609" height="15.652"/>
	<rect x="55.927" y="418.121" style="fill:#FFFFFF;" width="15.652" height="15.652"/>
	<rect x="80.974" y="418.121" style="fill:#FFFFFF;" width="15.652" height="15.652"/>
</g>
<path d="M496.275,266.121v-31.652h-8.348V88.514l-31.826-74.261l-31.826,74.261v145.954h-16.696V88.514l-31.826-74.261
	l-31.826,74.261v145.954h-15.652V88.514l-31.826-74.261l-31.826,74.261v145.954h-17.739V88.514l-31.826-74.261l-31.826,74.261
	v145.954h-14.609V88.482L136.275,14.61l-32.348,73.872v145.987H88.275V88.546L56.971,13.88L25.666,88.546v145.922h-9.391v31.652H0
	V498.12h512V266.121H496.275z M456.101,53.988l13.375,31.207L456,89.688l-13.299-4.434L456.101,53.988z M439.927,101.195
	l8.348,2.783v65.794h15.652v-65.861l8.348-2.783v133.34h-8.348v-48h-15.652v48h-8.348V101.195z M375.753,53.988l13.418,31.31
	L376,89.689l-13.604-4.535L375.753,53.988z M359.579,101.08l9.391,3.13v34.258h15.652V103.68l7.304-2.434v133.224h-7.304v-80.348
	h-15.652v80.348h-9.391V101.08z M296.449,53.988l13.331,31.106L296,89.688l-12.995-4.331L296.449,53.988z M280.275,101.311
	l7.304,2.434v66.026h15.652v-65.628l9.391-3.13v133.456h-9.391v-48h-15.652v48h-7.304V101.311z M215.058,53.988L228.563,85.5
	L216,89.688l-14.212-4.737L215.058,53.988z M198.884,100.848l10.435,3.478v42.489h15.652v-43.252l6.261-2.087v132.992h-6.261
	v-73.043h-15.652v73.043h-10.435V100.848z M136.275,53.632l13.743,31.384l-14.017,4.673l-13.538-4.513L136.275,53.632z
	 M119.579,101.08l7.304,2.434v18.258h15.652v-17.398l10.435-3.478v133.571h-10.435v-96h-15.652v96h-7.304V101.08z M56.971,54.362
	l12.875,30.711L56,89.688L43.856,85.64L56.971,54.362z M41.319,101.66l6.261,2.087v74.374h15.652v-73.977l9.391-3.13v133.456h-9.391
	v-40.696H47.579v40.696h-6.261V101.66z M31.927,250.121h448.695v16H31.927L31.927,250.121L31.927,250.121z M16.001,482.121v-17.043
	h392.622v-15.652H16.001V282.121h479.999v167.304h-23.725v15.652h23.725v17.043H16.001V482.121z"/>
</svg>