<?xml version="1.0" encoding="iso-8859-1"?>
<!-- Uploaded to: SVG Repo, www.svgrepo.com, Generator: SVG Repo Mixer Tools -->
<svg version="1.1" id="Layer_1" xmlns="http://www.w3.org/2000/svg" xmlns:xlink="http://www.w3.org/1999/xlink" 
	 viewBox="0 0 512.001 512.001" xml:space="preserve">
<path style="fill:#F95428;" d="M184.795,465.586l-25.459,37.525l-25.459-37.513c7.266-4.942,16.024-7.823,25.459-7.823
	C168.783,457.775,177.542,460.655,184.795,465.586z"/>
<g>
	<path style="fill:#F7B239;" d="M210.005,428.44l-25.21,37.146c-7.254-4.931-16.013-7.811-25.459-7.811
		c-9.435,0-18.193,2.88-25.459,7.823l-25.21-37.157H210.005z"/>
	<rect x="108.664" y="69.337" style="fill:#F7B239;" width="101.338" height="30.224"/>
</g>
<rect x="265.104" y="10.666" style="fill:#2BA5F7;" width="71.115" height="37.335"/>
<rect x="265.104" y="10.666" style="fill:#2197D8;" width="22.52" height="37.335"/>
<g>
	<polygon style="fill:#CCCCCC;" points="351.334,48.001 351.334,120.894 249.996,120.894 249.996,48.001 265.107,48.001 
		336.222,48.001 	"/>
	<path style="fill:#CCCCCC;" d="M249.996,382.311h101.338c0,45.43-18.253,88.964-50.669,120.8
		C268.26,471.275,249.996,427.741,249.996,382.311z"/>
</g>
<rect x="249.992" y="120.895" style="fill:#2BA5F7;" width="101.338" height="261.417"/>
<g>
	<rect x="249.992" y="48.001" style="fill:#B3B3B3;" width="36.743" height="72.892"/>
	<path style="fill:#B3B3B3;" d="M286.738,382.311c0,45.43,5.014,88.964,13.927,120.8c-32.405-31.836-50.669-75.37-50.669-120.8
		L286.738,382.311L286.738,382.311z"/>
</g>
<rect x="249.992" y="120.895" style="fill:#2197D8;" width="36.743" height="261.417"/>
<path style="fill:#2BA5F7;" d="M210.005,35.556v33.779H108.667V35.556c0-14.733,11.935-26.668,26.668-26.668h48.002
	C198.058,8.888,210.005,20.824,210.005,35.556z"/>
<rect x="108.664" y="99.559" style="fill:#F95428;" width="101.338" height="328.881"/>
<path style="fill:#E54728;" d="M154.121,465.598l5.215,37.513l-25.459-37.513c5.642-3.84,12.172-6.424,19.225-7.384"/>
<path style="fill:#E09B2D;" d="M148.965,428.44l4.137,29.773c-7.052,0.96-13.583,3.544-19.225,7.384l-25.21-37.157H148.965z"/>
<rect x="108.664" y="69.337" style="fill:#E09B2D;" width="40.298" height="30.224"/>
<path style="fill:#2197D8;" d="M175.633,8.888c-14.733,0-26.668,11.935-26.668,26.668v33.779h-40.298V35.556
	c0-14.733,11.935-26.668,26.668-26.668C135.335,8.888,175.633,8.888,175.633,8.888z"/>
<rect x="108.664" y="99.559" style="fill:#E54728;" width="40.298" height="328.881"/>
<g>
	<path style="fill:#FFFFFF;" d="M321.703,105.201c-4.91,0-8.889-3.98-8.889-8.889V72.607c0-4.909,3.979-8.889,8.889-8.889
		c4.91,0,8.889,3.98,8.889,8.889v23.705C330.592,101.221,326.612,105.201,321.703,105.201z"/>
	<path style="fill:#FFFFFF;" d="M321.703,365.953c-4.91,0-8.889-3.98-8.889-8.889V175.129c0-4.909,3.979-8.889,8.889-8.889
		c4.91,0,8.889,3.98,8.889,8.889v181.935C330.592,361.973,326.612,365.953,321.703,365.953z"/>
	<path style="fill:#FFFFFF;" d="M306.425,454.573c-1.355,0-2.73-0.311-4.02-0.966c-4.376-2.224-6.122-7.575-3.898-11.952
		c5.522-10.867,9.512-22.422,11.858-34.344c0.947-4.817,5.623-7.952,10.438-7.006c4.817,0.948,7.953,5.622,7.005,10.438
		c-2.662,13.528-7.187,26.637-13.451,38.965C312.789,452.795,309.664,454.573,306.425,454.573z"/>
	<path style="fill:#FFFFFF;" d="M184.523,408.622c-4.91,0-8.889-3.98-8.889-8.889V150.832c0-4.909,3.979-8.889,8.889-8.889
		s8.889,3.98,8.889,8.889v248.901C193.412,404.642,189.433,408.622,184.523,408.622z"/>
	<path style="fill:#FFFFFF;" d="M180.374,53.643c-4.91,0-8.889-3.98-8.889-8.889V33.186c0-4.909,3.979-8.889,8.889-8.889
		c4.91,0,8.889,3.98,8.889,8.889v11.568C189.264,49.663,185.285,53.643,180.374,53.643z"/>
	<circle style="fill:#FFFFFF;" cx="184.519" cy="122.388" r="8.889"/>
	<circle style="fill:#FFFFFF;" cx="321.699" cy="146.093" r="8.889"/>
	<circle style="fill:#FFFFFF;" cx="312.893" cy="27.568" r="8.889"/>
</g>
<g>
	<path style="fill:#000000;" d="M183.334,0h-48c-19.606,0-35.556,15.951-35.556,35.556v392.888c0,1.78,0.535,3.519,1.534,4.991
		l50.667,74.667c1.655,2.438,4.409,3.898,7.356,3.898s5.702-1.46,7.356-3.898l50.667-74.667c0.999-1.472,1.534-3.211,1.534-4.991
		V35.556C218.89,15.951,202.94,0,183.334,0z M135.334,17.779h48c9.803,0,17.777,7.976,17.777,17.777v24.889h-83.555V35.556
		C117.557,25.754,125.532,17.779,135.334,17.779z M117.557,419.555v-311.11h83.555v311.11H117.557z M193.226,437.333l-11.209,16.519
		c-7.066-3.259-14.771-4.963-22.686-4.963c-7.909,0-15.61,1.706-22.677,4.967l-11.212-16.523H193.226z M117.557,90.666V78.222
		h83.555v12.444H117.557z M159.334,487.279l-12.483-18.396c3.968-1.447,8.175-2.215,12.481-2.215c4.311,0,8.52,0.767,12.488,2.212
		L159.334,487.279z"/>
	<path style="fill:#000000;" d="M403.334,213.333c-6.861,0-12.444-5.582-12.444-12.444V69.333c0-16.665-13.557-30.223-30.223-30.223
		h-9.333h-6.223V10.667c0-4.909-3.979-8.889-8.889-8.889h-71.111c-4.91,0-8.889,3.98-8.889,8.889v28.445h-6.221
		c-4.91,0-8.889,3.98-8.889,8.889v334.305c0,47.508,19.436,93.851,53.326,127.147c1.729,1.698,3.979,2.548,6.23,2.548
		c2.251,0,4.5-0.85,6.23-2.548c33.891-33.296,53.326-79.638,53.326-127.147V56.889h0.443c6.861,0,12.444,5.582,12.444,12.444
		v131.555c0,16.665,13.557,30.222,30.223,30.222c4.91,0,8.889-3.98,8.889-8.889S408.243,213.333,403.334,213.333z M258.89,373.415
		V129.778h83.555v243.637L258.89,373.415L258.89,373.415z M258.89,112v-55.11h83.555V112H258.89z M274.001,19.557h53.332v19.555
		h-53.332V19.557z M300.668,490.289c-24.659-27.162-39.444-62.466-41.516-99.095h83.031
		C340.111,427.823,325.327,463.126,300.668,490.289z"/>
</g>
</svg>