<?xml version="1.0" encoding="iso-8859-1"?>
<!-- Uploaded to: SVG Repo, www.svgrepo.com, Generator: SVG Repo Mixer Tools -->
<svg version="1.1" id="Layer_1" xmlns="http://www.w3.org/2000/svg" xmlns:xlink="http://www.w3.org/1999/xlink" 
	 viewBox="0 0 512 512" xml:space="preserve">
<path style="fill:#6DDAE1;" d="M384.238,347.843L167.613,130.964L16.835,273.119l221.063,221.063
	c10.103,10.103,26.482,10.103,36.585,0c10.103-10.103,10.103-26.482,0-36.585c10.103,10.103,26.482,10.103,36.585,0
	c9.383-9.383,10.045-24.177,2-34.332l-2.127-2.126c10.103,10.103,26.482,10.103,36.585,0c10.103-10.103,10.103-26.483,0-36.585
	l0.127-0.127c10.103,10.103,26.482,10.103,36.585,0C394.34,374.325,394.34,357.945,384.238,347.843z"/>
<g>
	<path style="fill:#4FC4D3;" d="M248.921,483.16L28.182,262.421L16.833,273.12l221.064,221.062
		c8.693,8.693,22.025,9.885,32.016,3.617l-7.546-7.528C257.441,489.342,252.735,486.973,248.921,483.16z"/>
	<path style="fill:#4FC4D3;" d="M284.259,448.525l-20.208-20.208l-9.469,9.469l20.208,20.208c10.103,10.103,26.482,10.103,36.585,0
		c1.641-1.641,2.986-3.458,4.094-5.375C305.576,458.333,292.721,456.987,284.259,448.525z"/>
	<path style="fill:#4FC4D3;" d="M320.172,411.534l-19.669-19.669l-9.468,9.469l19.669,19.669c10.103,10.103,26.482,10.103,36.585,0
		c1.641-1.641,2.986-3.458,4.094-5.375C341.49,421.341,328.635,419.995,320.172,411.534z"/>
	<path style="fill:#4FC4D3;" d="M357.566,375.218l-20.208-20.208l-9.468,9.468l20.208,20.208c10.103,10.103,26.482,10.103,36.585,0
		c1.641-1.641,2.986-3.458,4.094-5.375C378.882,385.026,366.028,383.681,357.566,375.218z"/>
</g>
<path style="fill:#FFD791;" d="M249.852,213.445l115.852,115.852l25.915-25.915c12.629-12.629,12.629-33.103,0-45.731l-7.622-7.622
	l79.267-79.267l-121.95-121.95l-177.59,177.589c-6.314,6.314-6.314,16.551,0,22.865l73.932,73.932l19.817-19.817
	c12.629-12.629,12.629-33.103,0-45.731l-25.915-25.915L249.852,213.445z"/>
<polygon style="fill:#F8BE73;" points="463.264,170.762 341.314,48.812 264.3,125.827 388.125,245.9 "/>
<rect x="327.172" y="10.208" transform="matrix(-0.7071 0.7071 -0.7071 -0.7071 742.4715 -37.0561)" style="fill:#B2B2B2;" width="103.477" height="250.069"/>
<path style="fill:#FFD791;" d="M146.635,284.784c10.448,10.059,10.201,27.092-0.055,37.347l-49.13,49.13
	c-6.314,6.314-16.551,6.314-22.865,0l-13.719-13.719c-6.314-6.314-6.314-16.551,0-22.865l49.542-49.542
	C120.391,275.15,136.507,275.033,146.635,284.784z"/>
<path style="fill:#F8BE73;" d="M146.635,284.784c-2.219-2.137-4.737-3.772-7.405-4.96c4.66,9.764,2.792,22.029-5.278,30.099
	l-49.13,49.13c-5.576,5.576-14.207,6.219-20.498,1.948l10.26,10.26c6.314,6.314,16.551,6.314,22.865,0l49.13-49.13
	C156.835,311.876,157.083,294.843,146.635,284.784z"/>
<path style="fill:#FFD791;" d="M179.035,325.553c10.448,10.059,10.201,27.092-0.055,37.347l-44.946,44.946
	c-6.314,6.314-16.551,6.314-22.865,0l-13.719-13.719c-6.314-6.314-6.314-16.551,0-22.865l45.358-45.358
	C152.792,315.92,168.907,315.803,179.035,325.553z"/>
<path style="fill:#F8BE73;" d="M179.035,325.553c-2.189-2.107-4.667-3.725-7.294-4.911c4.272,9.651,2.313,21.551-5.578,29.442
	l-44.946,44.946c-6.314,6.314-16.551,6.314-22.865,0l12.816,12.816c6.314,6.314,16.551,6.314,22.865,0l44.946-44.946
	C189.235,352.645,189.483,335.613,179.035,325.553z"/>
<path style="fill:#FFD791;" d="M213.707,364.051c10.448,10.059,10.201,27.092-0.055,37.347l-43.033,43.033
	c-6.314,6.314-16.551,6.314-22.865,0l-13.719-13.719c-6.314-6.314-6.314-16.551,0-22.865l43.445-43.445
	C187.463,354.417,203.579,354.301,213.707,364.051z"/>
<path style="fill:#F8BE73;" d="M213.707,364.051c-2.006-1.932-4.253-3.46-6.636-4.617c4.667,9.765,2.8,22.038-5.273,30.111
	l-43.033,43.033c-6.314,6.314-16.551,6.314-22.865,0l11.854,11.854c6.314,6.314,16.551,6.314,22.865,0l43.033-43.033
	C223.908,391.143,224.155,374.111,213.707,364.051z"/>
<path style="fill:#FFD791;" d="M246.107,404.822c10.448,10.059,10.201,27.092-0.055,37.347l-38.848,38.848
	c-6.314,6.314-16.551,6.314-22.865,0l-13.719-13.719c-6.314-6.314-6.314-16.551,0-22.865l39.26-39.26
	C219.864,395.187,235.979,395.07,246.107,404.822z"/>
<path style="fill:#F8BE73;" d="M246.107,404.822c-2.164-2.084-4.611-3.689-7.205-4.871c4.322,9.667,2.375,21.615-5.539,29.529
	l-38.848,38.848c-6.314,6.314-16.551,6.314-22.865,0l12.69,12.69c6.314,6.314,16.551,6.314,22.865,0l38.848-38.848
	C256.308,431.913,256.555,414.881,246.107,404.822z"/>
<g>
	<path style="fill:#FF8C78;" d="M81.381,94.316C68.802,78.277,50.866,75.442,46.888,74.914c3.977-0.528,21.914-3.363,34.493-19.402
		c8.796-11.221,10.402-23.067,10.779-28.025c0.377,4.958,1.983,16.804,10.779,28.025c12.579,16.039,30.515,18.874,34.493,19.402
		c-3.977,0.528-21.914,3.363-34.493,19.402c-8.796,11.221-10.402,23.067-10.779,28.025C91.783,117.383,90.177,105.537,81.381,94.316
		z"/>
	<path style="fill:#FF8C78;" d="M42.577,473.735c-12.579-16.039-30.515-18.874-34.493-19.402
		c3.977-0.528,21.914-3.363,34.493-19.402c8.796-11.221,10.402-23.067,10.779-28.025c0.377,4.958,1.983,16.804,10.779,28.025
		c12.579,16.039,30.515,18.874,34.493,19.402c-3.977,0.528-21.914,3.363-34.493,19.402c-8.796,11.221-10.402,23.067-10.779,28.025
		C52.979,496.802,51.372,484.956,42.577,473.735z"/>
	<path style="fill:#FF8C78;" d="M447.865,404.749c-12.579-16.039-30.515-18.874-34.493-19.402
		c3.977-0.528,21.914-3.363,34.493-19.402c8.796-11.221,10.402-23.067,10.779-28.025c0.377,4.958,1.983,16.804,10.779,28.025
		c12.579,16.039,30.515,18.874,34.493,19.402c-3.977,0.528-21.914,3.363-34.493,19.402c-8.796,11.221-10.402,23.067-10.779,28.025
		C458.267,427.816,456.661,415.97,447.865,404.749z"/>
</g>
<path d="M377.132,329.303l20.204-20.204c15.76-15.76,15.76-41.404,0-57.164l-1.907-1.906l6.838-6.838l22.762,22.762
	c3.115,3.114,8.318,3.114,11.433,0l73.17-73.17c3.157-3.158,3.157-8.276,0-11.433L332.805,4.523c-3.158-3.156-8.276-3.156-11.433,0
	l-73.17,73.17c-3.157,3.158-3.157,8.276,0,11.433l20.683,20.683l-55.624,55.625l-40.059-40.059c-3.158-3.156-8.276-3.156-11.433,0
	c-3.157,3.158-3.157,8.276,0,11.433l40.059,40.059l-43.818,43.819c-9.35,9.348-9.35,24.95-0.001,34.299l73.932,73.932
	c3.158,3.156,8.276,3.156,11.433,0l19.817-19.817c15.76-15.76,15.76-41.404,0-57.163l-20.198-20.199l6.852-6.852L378.521,353.56
	c6.935,6.934,6.935,18.217,0.001,25.152c-6.933,6.933-18.212,6.934-25.148,0.005c-0.002-0.002-0.003-0.003-0.004-0.005
	l-18.293-18.293c-3.158-3.156-8.276-3.156-11.433,0c-3.157,3.158-3.157,8.276,0,11.433c0,0,17.758,18.009,18.167,18.418
	c6.935,6.936,6.935,18.219,0.001,25.153c-6.627,6.625-17.212,6.904-24.189,0.871c-0.251-0.348-19.129-19.29-19.129-19.29
	c-3.158-3.156-8.276-3.156-11.433,0c-3.157,3.158-3.157,8.276,0,11.433c0,0,15.294,14.819,19.931,20.185
	c5.775,6.681,4.646,16.974-1.639,23.26c-6.853,6.853-18.289,6.855-25.145,0.004c-0.002-0.002-0.003-0.004-0.005-0.005
	c0,0-19.106-19.026-19.55-19.32c0.862-3.113,1.309-6.352,1.277-9.619c-0.087-9.185-3.714-17.688-10.214-23.945
	c-6.375-6.138-14.631-9.26-22.93-9.405c0.507-2.427,0.766-4.915,0.743-7.419c-0.087-9.185-3.713-17.688-10.212-23.944
	c0-0.001,0-0.001-0.001-0.001c-6.854-6.598-15.883-9.714-24.799-9.387c0.24-1.704,0.357-3.431,0.34-5.165
	c-0.087-9.185-3.714-17.688-10.214-23.945h0.001c-6.376-6.138-14.632-9.26-22.93-9.406c0.507-2.427,0.766-4.914,0.742-7.419
	c-0.087-9.185-3.713-17.688-10.212-23.944c0-0.001,0-0.001-0.001-0.001c-13.229-12.736-34.561-12.527-47.551,0.458l-35.062,35.062
	l-51.39-51.389c-3.158-3.156-8.276-3.156-11.433,0c-3.157,3.158-3.157,8.276,0,11.433l51.39,51.389l-3.047,3.047
	c-9.454,9.455-9.454,24.842,0.001,34.299l13.719,13.719c4.392,4.391,10.064,6.716,15.826,7.029
	c0.318,5.983,2.771,11.568,7.04,15.835l13.721,13.721c4.391,4.391,10.063,6.715,15.826,7.028c0.318,5.984,2.771,11.569,7.04,15.838
	l13.719,13.718c4.268,4.27,9.854,6.722,15.837,7.04c0.313,5.762,2.638,11.434,7.029,15.827l13.719,13.718
	c4.58,4.581,10.67,7.104,17.149,7.104c6.479,0,12.569-2.523,17.149-7.103l3.047-3.047l16.214,16.214
	c6.619,6.619,15.314,9.928,24.008,9.928c8.695,0,17.391-3.309,24.01-9.93c7.314-7.315,10.586-17.167,9.817-26.749
	c9.885,0.798,19.753-2.822,26.766-9.835c7.251-7.252,10.587-17.044,9.851-26.628c9.536,0.723,19.329-2.551,26.609-9.829
	c7.354-7.356,10.623-17.273,9.806-26.906c9.632,0.804,19.55-2.451,26.906-9.806c6.412-6.413,9.945-14.94,9.945-24.01
	c0-9.068-3.531-17.594-9.945-24.008L377.132,329.303z M225.843,226.019c-3.157,3.158-3.157,8.276,0,11.432l25.914,25.916
	c9.456,9.455,9.456,24.841,0,34.296l-14.1,14.101l-68.215-68.216c-3.116-3.114-3.116-8.317,0-11.431l110.877-110.877l67.18,67.18
	c3.157,3.155,8.275,3.157,11.433,0c3.157-3.158,3.157-8.276,0-11.433l-93.58-93.58l61.736-61.736l165.394,165.394l-61.736,61.736
	l-39.684-39.685c-3.158-3.156-8.276-3.156-11.433,0c-3.157,3.158-3.157,8.276,0,11.433l11.206,11.206l-12.554,12.554
	c-3.157,3.158-3.157,8.276,0,11.433l7.622,7.622c9.456,9.455,9.456,24.841,0,34.296l-20.198,20.199L255.57,207.728
	c-3.114-3.112-8.319-3.112-11.433,0L225.843,226.019z M66.582,351.827c-3.152-3.153-3.152-8.283,0-11.433l49.541-49.542
	c5.302-5.302,13.67-6.657,20.405-3.386c6.763,3.285,10.526,10.605,9.625,18.017c-0.498,4.098-2.365,8.01-5.287,10.932l-49.129,49.13
	c-3.154,3.152-8.283,3.152-11.433,0L66.582,351.827z M103.165,388.411c-3.115-3.115-3.115-8.318,0.001-11.431l45.358-45.358
	c3.446-3.447,8.013-5.176,12.582-5.176c7.117,0,13.786,4.357,16.378,11.029c2.602,6.699,0.848,14.644-4.221,19.71l-44.944,44.946
	c-3.153,3.151-8.281,3.152-11.433,0.001L103.165,388.411z M139.75,424.996c-3.115-3.115-3.115-8.318,0.001-11.431l43.445-43.446
	c5.43-5.432,14.084-6.727,20.852-3.102c6.055,3.243,9.722,9.849,9.273,16.699c-0.292,4.468-2.214,8.797-5.384,11.966l-43.034,43.034
	c-3.115,3.115-8.318,3.115-11.431-0.001L139.75,424.996z M195.772,477.668c-2.159,0-4.19-0.841-5.717-2.368l-13.719-13.718
	c-3.15-3.151-3.152-8.276-0.005-11.429c0.002-0.002,0.004-0.003,0.005-0.005l39.261-39.26c6.725-6.725,18.05-6.841,24.904-0.244
	c7.172,6.905,6.762,18.884-0.165,25.806l-38.848,38.849C199.961,476.827,197.931,477.668,195.772,477.668z M268.768,488.466
	c-6.937,6.935-18.22,6.935-25.153,0l-16.214-16.214c0,0,24.879-24.903,25.131-25.172l16.234,16.234
	c0.001,0.001,0.003,0.003,0.005,0.004C275.7,470.254,275.699,481.534,268.768,488.466z"/>
<path d="M45.825,82.927c5.488,0.73,19.319,3.786,29.195,16.375c7.017,8.952,8.701,18.661,9.08,23.65
	c0.32,4.215,3.834,7.472,8.062,7.472s7.741-3.256,8.062-7.472c0.379-4.991,2.063-14.699,9.079-23.649
	c9.877-12.593,23.707-15.648,29.196-16.376c4.016-0.534,7.018-3.959,7.018-8.013s-3.002-7.48-7.02-8.014
	c-5.489-0.73-19.319-3.784-29.195-16.375c-7.017-8.952-8.701-18.661-9.08-23.65c-0.319-4.216-3.833-7.472-8.06-7.472
	s-7.741,3.256-8.062,7.472c-0.379,4.991-2.063,14.699-9.079,23.649C65.143,63.116,51.312,66.171,45.823,66.9
	c-4.017,0.534-7.019,3.96-7.019,8.014S41.806,82.393,45.825,82.927z M87.743,60.499c1.682-2.145,3.145-4.314,4.417-6.475
	c5.076,8.622,12.338,15.845,20.976,20.89C104.5,79.956,97.231,87.18,92.16,95.803c-1.272-2.162-2.736-4.33-4.417-6.475
	c0,0,0-0.001-0.001-0.001c-5.074-6.47-10.882-11.1-16.558-14.414C76.859,71.6,82.669,66.969,87.743,60.499z"/>
<path d="M99.691,446.318c-5.489-0.73-19.319-3.784-29.195-16.375c-7.017-8.952-8.701-18.661-9.08-23.65
	c-0.319-4.216-3.833-7.472-8.06-7.472s-7.741,3.256-8.062,7.472c-0.379,4.991-2.063,14.699-9.079,23.649
	c-9.877,12.593-23.707,15.648-29.196,16.376C3.002,446.852,0,450.279,0,454.333s3.002,7.479,7.02,8.014
	c5.488,0.73,19.319,3.786,29.195,16.375c7.017,8.952,8.701,18.661,9.08,23.65c0.32,4.215,3.834,7.472,8.062,7.472
	s7.741-3.256,8.062-7.472c0.379-4.991,2.063-14.699,9.079-23.649c9.877-12.593,23.707-15.648,29.196-16.376
	c4.016-0.535,7.018-3.96,7.018-8.014S103.71,446.852,99.691,446.318z M57.773,468.747c-1.682,2.145-3.145,4.313-4.417,6.475
	c-1.272-2.162-2.736-4.33-4.417-6.475c0,0,0-0.001-0.001-0.001c-5.074-6.47-10.884-11.1-16.558-14.414
	c8.637-5.043,15.902-12.266,20.976-20.89c5.076,8.622,12.338,15.845,20.976,20.89C68.657,457.646,62.847,462.278,57.773,468.747z"/>
<path d="M504.98,377.333c-5.489-0.73-19.319-3.784-29.195-16.375c-7.017-8.952-8.701-18.661-9.08-23.65
	c-0.32-4.215-3.834-7.472-8.062-7.472c-4.227,0-7.741,3.256-8.062,7.472c-0.379,4.991-2.063,14.699-9.079,23.649
	c-9.877,12.593-23.707,15.648-29.196,16.376c-4.018,0.534-7.02,3.96-7.02,8.014s3.002,7.479,7.02,8.014
	c5.488,0.73,19.319,3.786,29.195,16.375c7.017,8.952,8.701,18.661,9.08,23.65c0.32,4.215,3.834,7.472,8.062,7.472
	c4.228,0,7.741-3.256,8.062-7.472c0.379-4.991,2.063-14.699,9.079-23.649c9.877-12.593,23.707-15.648,29.196-16.376
	c4.018-0.534,7.02-3.96,7.02-8.014S508.998,377.867,504.98,377.333z M463.061,399.762c-1.682,2.145-3.145,4.313-4.417,6.475
	c-1.272-2.162-2.736-4.33-4.417-6.475c0,0,0-0.001-0.001-0.001c-5.074-6.47-10.883-11.1-16.558-14.414
	c8.637-5.043,15.902-12.266,20.976-20.89c5.076,8.622,12.338,15.845,20.976,20.89C473.945,388.661,468.135,393.293,463.061,399.762z
	"/>
</svg>