<?xml version="1.0" encoding="iso-8859-1"?>
<!-- Uploaded to: SVG Repo, www.svgrepo.com, Generator: SVG Repo Mixer Tools -->
<svg version="1.1" id="Layer_1" xmlns="http://www.w3.org/2000/svg" xmlns:xlink="http://www.w3.org/1999/xlink" 
	 viewBox="0 0 512 512" xml:space="preserve">
<rect x="66.039" y="66.039" style="fill:#F92859;" width="379.92" height="379.92"/>
<rect x="105.705" y="105.705" style="fill:#75EBE5;" width="300.601" height="300.601"/>
<rect x="237.213" y="201.73" style="fill:#FFFFFF;" width="91.854" height="108.55"/>
<rect x="329.057" y="225.729" style="fill:#F92859;" width="36.531" height="60.532"/>
<g>
	<path style="fill:#000000;" d="M105.701,416.498H406.3c5.632,0,10.199-4.566,10.199-10.199V105.701
		c0-5.633-4.567-10.199-10.199-10.199H105.701c-5.632,0-10.199,4.566-10.199,10.199V406.3
		C95.502,411.932,100.068,416.498,105.701,416.498z M115.901,115.901h280.2v280.2h-280.2V115.901z"/>
	<path style="fill:#000000;" d="M365.592,215.533h-26.331v-13.807c0-5.633-4.567-10.199-10.199-10.199h-91.849
		c-5.632,0-10.199,4.566-10.199,10.199v108.549c0,5.633,4.567,10.199,10.199,10.199h91.849c5.632,0,10.199-4.566,10.199-10.199
		v-13.807h26.331c5.632,0,10.199-4.566,10.199-10.199v-60.536C375.792,220.099,371.226,215.533,365.592,215.533z M318.863,300.075
		h-71.451v-15.089h45.118c5.632,0,10.199-4.566,10.199-10.199s-4.567-10.199-10.199-10.199h-45.118v-16.132h45.118
		c5.632,0,10.199-4.566,10.199-10.199c0-5.633-4.567-10.199-10.199-10.199h-45.118v-16.132h71.451v13.807v60.536V300.075z
		 M355.393,276.069h-16.132v-40.138h16.132V276.069z"/>
	<path style="fill:#000000;" d="M501.801,178.003c5.632,0,10.199-4.566,10.199-10.199c0-5.633-4.567-10.199-10.199-10.199h-45.64
		v-41.182h45.64c5.632,0,10.199-4.566,10.199-10.199c0-5.633-4.567-10.199-10.199-10.199h-45.64V66.04
		c0-5.633-4.567-10.199-10.199-10.199h-29.985V10.199C415.977,4.566,411.409,0,405.777,0c-5.632,0-10.199,4.566-10.199,10.199
		v45.641h-41.182V10.199C354.396,4.566,349.829,0,344.197,0c-5.632,0-10.199,4.566-10.199,10.199v45.641h-38.051V10.199
		C295.946,4.566,291.379,0,285.747,0c-5.632,0-10.199,4.566-10.199,10.199v45.641h-39.096V10.199C236.452,4.566,231.885,0,226.253,0
		s-10.199,4.566-10.199,10.199v45.641h-38.051V10.199C178.003,4.566,173.435,0,167.803,0s-10.199,4.566-10.199,10.199v45.641
		h-41.182V10.199C116.422,4.566,111.855,0,106.223,0c-5.632,0-10.199,4.566-10.199,10.199v45.641H66.039
		c-5.632,0-10.199,4.566-10.199,10.199v29.985h-45.64C4.567,96.024,0,100.591,0,106.224s4.567,10.199,10.199,10.199h45.64v41.182
		h-45.64C4.567,157.605,0,162.171,0,167.804s4.567,10.199,10.199,10.199h45.64v38.051h-45.64C4.567,216.055,0,220.621,0,226.254
		c0,5.633,4.567,10.199,10.199,10.199h45.64v39.095h-45.64C4.567,275.548,0,280.114,0,285.747c0,5.633,4.567,10.199,10.199,10.199
		h45.64v38.051h-45.64C4.567,333.997,0,338.564,0,344.197s4.567,10.199,10.199,10.199h45.64v41.182h-45.64
		C4.567,395.578,0,400.144,0,405.777s4.567,10.199,10.199,10.199h45.64v29.985c0,5.633,4.567,10.199,10.199,10.199h29.985v45.64
		c0,5.633,4.567,10.199,10.199,10.199s10.199-4.566,10.199-10.199v-45.641h41.182v45.641c0,5.633,4.567,10.199,10.199,10.199
		s10.199-4.566,10.199-10.199v-45.641h38.051v45.641c0,5.633,4.567,10.199,10.199,10.199s10.199-4.566,10.199-10.199v-45.641h39.096
		v45.641c0,5.633,4.567,10.199,10.199,10.199c5.632,0,10.199-4.566,10.199-10.199v-45.641h38.051v45.641
		c0,5.633,4.567,10.199,10.199,10.199c5.632,0,10.199-4.566,10.199-10.199v-45.641h41.182v45.641
		c0,5.633,4.567,10.199,10.199,10.199c5.632,0,10.199-4.566,10.199-10.199v-45.641h29.985c5.632,0,10.199-4.566,10.199-10.199
		v-29.985h45.64c5.632,0,10.199-4.566,10.199-10.199s-4.567-10.199-10.199-10.199h-45.64v-41.182h45.64
		c5.632,0,10.199-4.566,10.199-10.199c0-5.633-4.567-10.199-10.199-10.199h-45.64v-38.051h45.64c5.632,0,10.199-4.566,10.199-10.199
		s-4.567-10.199-10.199-10.199h-45.64v-39.095h45.64c5.632,0,10.199-4.566,10.199-10.199c0-5.633-4.567-10.199-10.199-10.199h-45.64
		v-38.051L501.801,178.003L501.801,178.003z M435.762,435.761H76.238V76.239h359.524V435.761z"/>
	<path style="fill:#333333;" d="M138.057,229.101c-5.632,0-10.199,4.566-10.199,10.199v4.175c0,5.633,4.567,10.199,10.199,10.199
		s10.199-4.566,10.199-10.199V239.3C148.257,233.668,143.69,229.101,138.057,229.101z"/>
	<path style="fill:#333333;" d="M138.057,267.719c-5.632,0-10.199,4.566-10.199,10.199v97.068c0,5.633,4.567,10.199,10.199,10.199
		s10.199-4.566,10.199-10.199v-97.068C148.257,272.285,143.69,267.719,138.057,267.719z"/>
</g>
</svg>