<?xml version="1.0" encoding="iso-8859-1"?>
<!-- Uploaded to: SVG Repo, www.svgrepo.com, Generator: SVG Repo Mixer Tools -->
<svg height="60px" width="60px" version="1.1" id="Layer_1" xmlns="http://www.w3.org/2000/svg" xmlns:xlink="http://www.w3.org/1999/xlink" 
	 viewBox="0 0 512 512" xml:space="preserve">
<path style="fill:#FFCF70;" d="M498.646,191.417l-7.656-37.633L368.991,275.783c-16.722,16.722-43.835,16.722-60.558,0
	l-72.215-72.215c-16.722-16.722-16.722-43.835,0-60.558L358.216,21.01l-37.633-7.656c-50.022-10.177-98.496,7.907-135.334,43.243
	c-0.797,0.764-1.586,1.537-2.369,2.32l-46.273,46.273c-32.333,32.333-48.702,75.72-36.867,119.889l6.829,25.485l-95.987,95.986
	l154.868,154.868l95.986-95.986l25.486,6.829c44.168,11.835,87.554-4.534,119.888-36.867l46.274-46.274
	c0.782-0.782,1.555-1.572,2.32-2.369C490.74,289.913,508.823,241.439,498.646,191.417z"/>
<path style="fill:#ECF0F1;" d="M40.457,376.531l51.933-51.933c26.237-26.237,68.775-26.237,95.012,0l0,0
	c26.237,26.237,26.237,68.775,0,95.012l-51.933,51.933L40.457,376.531z"/>
<polygon style="fill:#0BBBDA;" points="299.533,175.058 313.226,123.955 364.328,110.263 401.738,147.672 388.045,198.774 
	336.942,212.467 "/>
<g>
	<path style="fill:#231F20;" d="M509.014,189.307l-7.656-37.633c-0.776-3.817-3.588-6.9-7.319-8.021
		c-3.731-1.126-7.777-0.104-10.531,2.649l-122,121.999c-12.569,12.571-33.024,12.571-45.593,0l-72.215-72.215
		c-6.089-6.089-9.442-14.185-9.442-22.797c0-8.612,3.353-16.707,9.444-22.797l121.999-122c2.755-2.755,3.772-6.801,2.649-10.531
		c-1.123-3.731-4.205-6.543-8.022-7.319l-37.631-7.655c-50.777-10.334-103.54,6.427-144.771,45.976
		c-0.85,0.816-48.797,48.744-48.797,48.744c-37.324,37.324-51.76,84.748-39.606,130.109l5.248,19.586L3.1,339.069
		c-1.985,1.984-3.1,4.675-3.1,7.482c0,2.807,1.115,5.497,3.099,7.482l154.868,154.867c1.984,1.984,4.675,3.099,7.482,3.099
		s5.498-1.115,7.482-3.099l91.667-91.668l19.585,5.248c45.355,12.151,92.783-2.279,130.108-39.606c0,0,47.931-47.948,48.748-48.798
		C502.587,292.846,519.345,240.081,509.014,189.307z M55.473,376.479l44.399-44.398c22.068-22.069,57.977-22.069,80.048,0
		c10.691,10.691,16.578,24.904,16.578,40.024s-5.887,29.334-16.578,40.024l-44.398,44.398L55.473,376.479z M447.77,319.425
		c-0.714,0.745-48.442,48.486-48.442,48.486c-31.834,31.834-71.803,44.273-109.668,34.129l-25.485-6.829
		c-3.653-0.981-7.546,0.067-10.22,2.738l-88.506,88.506l-14.964-14.964l44.398-44.398c14.689-14.687,22.777-34.217,22.777-54.988
		s-8.089-40.301-22.777-54.988c-30.32-30.319-79.656-30.319-109.976,0L40.51,361.515l-14.964-14.964l88.506-88.505
		c2.673-2.673,3.717-6.57,2.738-10.22l-6.829-25.486c-10.145-37.861,2.294-77.835,34.128-109.668c0,0,47.744-47.727,48.485-48.439
		c36.143-34.67,82.031-49.44,125.901-40.509l18.335,3.729L228.736,135.528c-10.086,10.087-15.641,23.497-15.641,37.761
		s5.555,27.675,15.641,37.761l72.215,72.215c20.821,20.821,54.701,20.821,75.522,0l108.075-108.075l3.731,18.338
		C497.203,237.395,482.437,283.283,447.77,319.425z"/>
	<path style="fill:#231F20;" d="M372.379,317.286l-7.856,7.856c-4.132,4.132-4.132,10.832,0,14.965
		c2.066,2.065,4.774,3.099,7.482,3.099c2.708,0,5.415-1.034,7.482-3.099l7.856-7.856c4.132-4.132,4.132-10.832,0-14.965
		C383.21,313.155,376.512,313.155,372.379,317.286z"/>
	<path style="fill:#231F20;" d="M412.983,276.682l-12.01,12.01c-4.132,4.132-4.132,10.832,0,14.965
		c2.066,2.065,4.774,3.099,7.482,3.099c2.708,0,5.415-1.034,7.482-3.099l12.01-12.01c4.132-4.132,4.132-10.832,0-14.965
		C423.814,272.55,417.116,272.55,412.983,276.682z"/>
	<path style="fill:#231F20;" d="M449.433,240.231l-7.855,7.856c-4.132,4.132-4.132,10.832,0.001,14.964
		c2.065,2.066,4.773,3.099,7.481,3.099c2.708,0,5.416-1.034,7.482-3.1l7.855-7.856c4.132-4.132,4.132-10.832-0.001-14.964
		C460.265,236.097,453.564,236.099,449.433,240.231z"/>
	<path style="fill:#231F20;" d="M256.43,73.523c2.708,0,5.416-1.034,7.483-3.099l7.855-7.856c4.132-4.133,4.132-10.832,0-14.965
		c-4.133-4.131-10.833-4.131-14.965,0l-7.855,7.856c-4.132,4.133-4.132,10.832,0,14.965
		C251.015,72.489,253.723,73.523,256.43,73.523z"/>
	<path style="fill:#231F20;" d="M223.309,111.028l12.009-12.01c4.132-4.132,4.132-10.832,0-14.965
		c-4.132-4.131-10.832-4.131-14.964,0l-12.009,12.01c-4.132,4.132-4.132,10.832,0,14.965c2.066,2.065,4.774,3.099,7.482,3.099
		C218.535,114.127,221.242,113.094,223.309,111.028z"/>
	<path style="fill:#231F20;" d="M179.75,124.658l-7.856,7.856c-4.132,4.132-4.132,10.832,0,14.965
		c2.066,2.065,4.774,3.099,7.482,3.099c2.708,0,5.416-1.034,7.482-3.099l7.856-7.856c4.132-4.132,4.132-10.832,0-14.965
		C190.583,120.527,183.883,120.527,179.75,124.658z"/>
	<path style="fill:#231F20;" d="M361.589,100.042l-51.102,13.693c-3.651,0.979-6.503,3.83-7.482,7.482l-13.693,51.102
		c-0.979,3.65,0.066,7.547,2.738,10.22l37.409,37.409c2.01,2.009,4.713,3.099,7.483,3.099c0.912,0,1.833-0.117,2.737-0.361
		l51.102-13.693c3.651-0.979,6.503-3.83,7.482-7.482l13.693-51.102c0.979-3.65-0.066-7.547-2.738-10.22L371.81,102.78
		C369.137,100.11,365.239,99.062,361.589,100.042z M389.936,150.834l-10.531,39.301l-39.301,10.531l-28.77-28.77l10.531-39.301
		l39.301-10.531L389.936,150.834z"/>
	<path style="fill:#231F20;" d="M186.486,198.727c-4.131-4.13-10.831-4.131-14.964,0c-4.132,4.132-4.133,10.831,0,14.965
		l7.855,7.856c2.066,2.065,4.774,3.099,7.482,3.099c2.708,0,5.415-1.034,7.482-3.099c4.132-4.132,4.133-10.831,0-14.965
		L186.486,198.727z"/>
	<path style="fill:#231F20;" d="M240.24,252.481c-4.132-4.131-10.832-4.131-14.965,0c-4.132,4.132-4.132,10.832,0,14.965
		l19.277,19.278c2.066,2.065,4.774,3.099,7.482,3.099c2.708,0,5.416-1.034,7.482-3.099c4.132-4.132,4.132-10.832,0-14.965
		L240.24,252.481z"/>
	<path style="fill:#231F20;" d="M305.416,317.659c-4.131-4.133-10.832-4.132-14.964,0.001c-4.132,4.132-4.132,10.832,0.001,14.964
		l7.856,7.855c2.065,2.066,4.773,3.099,7.481,3.099s5.416-1.034,7.482-3.1c4.132-4.132,4.132-10.832-0.001-14.964L305.416,317.659z"
		/>
</g>
</svg>