<svg version="1.2" xmlns="http://www.w3.org/2000/svg" viewBox="0 0 1034 140" width="295" height="40">
	<title>Proyecto nuevo</title>
	<style>
		.s0 { fill: #000000 } 
		.s1 { fill: #e5594f } 
		.s2 { fill: #f39a2b } 
		.s3 { fill: #f0d043 } 
	</style>
	<path id=" apiles.dev" class="s0" aria-label=" apiles.dev"  d="m196 113.7c9.3 0 18.3-4.3 25.6-9.8h0.6l1.6 8.1h17.4v-41.3c0-22.1-12.3-32.6-32.5-32.6-12.4 0-23.9 4.1-33.8 9.8l7.6 13.9c8.1-4.1 15-6.7 21.9-6.7 9.8 0 14.7 4 15.5 10.5-34.2 2-47.6 10.2-47.6 26.3 0 12.2 9.2 21.8 23.7 21.8zm6.8-16.5c-6.1 0-10-2.2-10-6.9 0-6.2 5.8-10.7 27.1-11.9v11.9c-5.1 4-10.7 6.9-17.1 6.9zm58.4 41.6h21.4v-21.1l-1.1-11.8h0.6c5.1 5.1 11.4 7.8 17.8 7.8 16.1 0 31.2-14.2 31.2-38.9 0-22.3-10.9-36.7-28.9-36.7-7.7 0-15.7 3.8-21.5 9h-0.5l-1.6-7.2h-17.4zm33.7-42.5c-3.6 0-8.3-1.3-12.3-4.8v-29.3c4.5-4.6 8.7-6.6 13.3-6.6 9.1 0 13.3 6.5 13.3 19.4 0 14.9-6.3 21.3-14.3 21.3zm83.5 15.7h21.4v-72.1h-50.3v16.7h28.9zm9.8-83.5c8.2 0 14.2-5.1 14.2-13 0-7.8-6-13.3-14.2-13.3-8.3 0-14.3 5.5-14.3 13.3 0 7.9 6 13 14.3 13zm94.5 85.2c9 0 14.1-1.4 21.7-3.9l-4.8-15.7c-4.4 1.7-7.9 2.3-11.2 2.3-6.1 0-11.8-2.9-11.8-11.8v-74.6h-42.5v16.9h21.1v56.9c0 18.3 9.5 29.9 27.5 29.9zm77.8 0c9.6 0 20.4-3.2 28.7-8.4l-7.2-13c-6.4 3.4-12 5.1-18.6 5.1-11.8 0-19.5-4.6-21.5-15.1h49.2c0.2-1.7 1-5.7 1-9.6 0-19.6-11.8-34.6-34.1-34.6-19.3 0-37.5 14.1-37.5 37.8 0 24 17.5 37.8 40 37.8zm-1.7-59.3c8.3 0 13.2 4.6 14.2 13.5h-30.8c2.2-9 8.1-13.5 16.6-13.5zm84 59.3c23.2 0 35.5-10.2 35.5-23.2 0-11.8-6.1-18.1-28.3-23.2-12.3-2.7-16.8-3.6-16.8-7.7 0-3.3 3.4-5.7 10.1-5.7 8 0 16.3 2.5 23.5 6.9l9.6-12.8c-7.5-4.8-18.3-9.9-31.2-9.9-20.5 0-33.2 9.2-33.2 22.5 0 11.2 7.9 18.4 27.5 22.6 14.1 3 17.7 4.5 17.7 8.6 0 3.5-3.6 6.1-11.5 6.1-10.3 0-20.2-3.1-29-8.6l-9.2 13.4c9.2 6.1 22.4 11 35.3 11zm168.8 0c7.2 0 14.6-3.9 20-9.1h0.5l1.6 7.4h17.4v-102h-21.4v24.6l1.1 11.2h-0.6c-4.8-4.9-10.2-7.7-18.2-7.7-15.7 0-30.8 14.2-30.8 37.8 0 23.6 12 37.8 30.4 37.8zm5.5-17.4c-8.9 0-14-6.4-14-20.7 0-13.7 6.7-20.1 14.6-20.1 4.2 0 8.1 1.4 12 4.8v29.3c-3.7 4.8-7.8 6.7-12.6 6.7zm92.5 17.4c9.6 0 20.4-3.2 28.6-8.4l-7.1-13c-6.4 3.4-12.1 5.1-18.6 5.1-11.8 0-19.5-4.6-21.5-15.1h49.1c0.3-1.7 1.1-5.7 1.1-9.6 0-19.6-11.8-34.6-34.1-34.6-19.3 0-37.5 14.1-37.5 37.8 0 24 17.4 37.8 40 37.8zm-1.8-59.3c8.3 0 13.3 4.6 14.3 13.5h-30.8c2.1-9 8.1-13.5 16.5-13.5zm72.8 57.6h24.5l26.5-72.2h-20.5l-11.3 34.1c-2.4 7.2-4.2 14.7-6.4 22.2h-0.6c-2.2-7.5-4.2-15-6.6-22.2l-11.3-34.1h-21.5z"/>
	<path id=" apiles.dev" class="s1" aria-label=" apiles.dev"  d="m730.7 113.7c10 0 16.9-7.4 16.9-17 0-9.6-6.9-17.1-16.9-17.1-10.1 0-16.9 7.5-16.9 17.1 0 9.6 6.8 17 16.9 17z"/>
	<path id="A" class="s0" aria-label="A"  d="m43.8 60.1c2.7-10.2 5.5-22.2 8-33h0.7c2.3 10.8 5.5 22.8 8.1 33l2.4 9.4h-21.6zm-36.9 51.9h23.6l6.3-24.3h30.9l6.2 24.3h24.5l-31.9-102.5h-27.7z"/>
	<path id="Layer" class="s1" d="m157.5 48.4l0.3-0.4c2.5-3.2 1.9-7.8-1.3-10.3l-40.2-31.2c-3.2-2.5-7.8-1.9-10.3 1.3l-0.3 0.4c-2.5 3.2-1.9 7.8 1.3 10.3l40.2 31.2c3.2 2.5 7.8 1.9 10.3-1.3z"/>
	<path id="Layer" class="s2" d="m117.1 81.3l39.9-31.6c3.2-2.5 3.7-7.1 1.2-10.3l-0.3-0.4c-2.5-3.2-7.1-3.7-10.3-1.2l-40 31.6c-3.1 2.5-3.7 7.1-1.2 10.3l0.4 0.4c2.5 3.2 7.1 3.7 10.3 1.2z"/>
	<path id="Layer" class="s3" d="m157.2 111.4l0.3-0.4c2.6-3.2 2.1-7.8-1.1-10.3l-39.6-32c-3.2-2.5-7.8-2-10.4 1.2l-0.3 0.4c-2.6 3.1-2.1 7.8 1.1 10.3l39.7 31.9c3.1 2.6 7.8 2.1 10.3-1.1z"/>
</svg>